<svg width="176" height="224" viewBox="0 0 176 224" fill="none" xmlns="http://www.w3.org/2000/svg">
<g opacity="0.502697">
<path fill-rule="evenodd" clip-rule="evenodd" d="M130.166 98.0755L44.4963 49.3545L47.9802 43.2442L133.65 91.9651L130.166 98.0755Z" stroke="#010202"/>
<path d="M33.4783 0.903722L150.051 222.732" stroke="#010202"/>
<path fill-rule="evenodd" clip-rule="evenodd" d="M47.6796 113.193C23.3877 112.344 4.38269 91.9913 5.22985 67.7319C6.07701 43.4725 26.4555 24.4947 50.7473 25.343C75.0392 26.1913 94.0442 46.5444 93.1971 70.8037C92.3499 95.0631 71.9714 114.041 47.6796 113.193Z" fill="#010202"/>
<path d="M83.7304 96.5376L46.3464 25.3944" stroke="#FEFEFE"/>
<path fill-rule="evenodd" clip-rule="evenodd" d="M98.979 153.521L11.9023 199.672L8.60095 193.459L95.6777 147.31L98.979 153.521Z" stroke="#010202"/>
<path fill-rule="evenodd" clip-rule="evenodd" d="M73.0669 142.799C68.0762 142.624 64.1708 138.442 64.3449 133.458C64.5189 128.474 68.7065 124.574 73.6972 124.748C78.6879 124.923 82.5933 129.105 82.4192 134.089C82.2452 139.073 78.0576 142.973 73.0669 142.799Z" stroke="#010202"/>
</g>
</svg>
