<svg width="267" height="254" viewBox="0 0 267 254" fill="none" xmlns="http://www.w3.org/2000/svg">
<g opacity="0.39967">
<mask id="mask0_0_7" style="mask-type:luminance" maskUnits="userSpaceOnUse" x="70" y="5" width="101" height="141">
<path fill-rule="evenodd" clip-rule="evenodd" d="M83.4172 5.65642L70.512 14.7608L162.572 145.954L170.713 130.073L83.4172 5.65642Z" fill="white"/>
</mask>
<g mask="url(#mask0_0_7)">
<path fill-rule="evenodd" clip-rule="evenodd" d="M57.3362 122.536C57.8073 122.193 58.3092 121.885 58.7467 121.503C103.661 82.3567 148.571 43.2054 193.484 4.05579C193.849 3.73898 194.244 3.45602 194.624 3.15845L194.056 11.282C193.624 11.588 193.162 11.8602 192.766 12.2067C154.547 45.5167 116.336 78.8364 78.118 112.147C71.0163 118.335 63.8852 124.489 56.7681 130.66L57.3362 122.536Z" fill="#231F20"/>
</g>
<mask id="mask1_0_7" style="mask-type:luminance" maskUnits="userSpaceOnUse" x="70" y="5" width="101" height="141">
<path fill-rule="evenodd" clip-rule="evenodd" d="M83.4172 5.65642L70.512 14.7608L162.572 145.954L170.713 130.073L83.4172 5.65642Z" fill="white"/>
</mask>
<g mask="url(#mask1_0_7)">
<path fill-rule="evenodd" clip-rule="evenodd" d="M56.2001 138.783C56.7531 138.37 57.337 137.991 57.8565 137.538C102.649 98.4986 147.437 59.4523 192.226 20.4092C192.631 20.0558 193.066 19.7393 193.488 19.4053L192.92 27.5288C192.365 27.9414 191.781 28.3217 191.262 28.7747C146.51 67.778 101.762 106.788 57.0134 145.794C56.5678 146.183 56.093 146.536 55.632 146.906L56.2001 138.783Z" fill="#231F20"/>
</g>
<mask id="mask2_0_7" style="mask-type:luminance" maskUnits="userSpaceOnUse" x="70" y="5" width="101" height="141">
<path fill-rule="evenodd" clip-rule="evenodd" d="M83.4172 5.65642L70.512 14.7608L162.572 145.954L170.713 130.073L83.4172 5.65642Z" fill="white"/>
</mask>
<g mask="url(#mask2_0_7)">
<path fill-rule="evenodd" clip-rule="evenodd" d="M55.064 155.03C55.5768 154.652 56.1189 154.308 56.5982 153.892C101.472 114.781 146.341 75.6628 191.212 36.5482C191.576 36.2313 191.972 35.9499 192.352 35.6523L191.784 43.7759C191.352 44.0819 190.89 44.3541 190.493 44.7005C152.151 78.1171 113.816 111.542 75.4747 144.957C68.4967 151.04 61.4892 157.09 54.4959 163.154L55.064 155.03Z" fill="#231F20"/>
</g>
<mask id="mask3_0_7" style="mask-type:luminance" maskUnits="userSpaceOnUse" x="70" y="5" width="101" height="141">
<path fill-rule="evenodd" clip-rule="evenodd" d="M83.4172 5.65642L70.512 14.7608L162.572 145.954L170.713 130.073L83.4172 5.65642Z" fill="white"/>
</mask>
<g mask="url(#mask3_0_7)">
<path fill-rule="evenodd" clip-rule="evenodd" d="M53.9279 171.277C54.4407 170.899 54.9842 170.557 55.4621 170.139C100.296 131.064 145.124 91.981 189.954 52.9028C190.359 52.5495 190.794 52.233 191.216 51.8989C191.027 54.6063 190.837 57.3151 190.648 60.0225C190.093 60.4351 189.509 60.8139 188.99 61.2668C144.238 100.27 99.4903 139.28 54.7413 178.286C54.2957 178.675 53.8208 179.029 53.3598 179.4L53.9279 171.277Z" fill="#231F20"/>
</g>
<mask id="mask4_0_7" style="mask-type:luminance" maskUnits="userSpaceOnUse" x="70" y="5" width="101" height="141">
<path fill-rule="evenodd" clip-rule="evenodd" d="M83.4172 5.65642L70.512 14.7608L162.572 145.954L170.713 130.073L83.4172 5.65642Z" fill="white"/>
</mask>
<g mask="url(#mask4_0_7)">
<path fill-rule="evenodd" clip-rule="evenodd" d="M52.7919 187.524C53.263 187.181 53.7649 186.872 54.2024 186.491C99.1168 147.344 144.027 108.193 188.94 69.0433C189.305 68.7265 189.7 68.4436 190.08 68.146L189.512 76.2695C189.08 76.5756 188.619 76.8479 188.222 77.1943C150.003 110.504 111.793 143.824 73.5737 177.134C66.472 183.322 59.3409 189.477 52.2238 195.647L52.7919 187.524Z" fill="#231F20"/>
</g>
<mask id="mask5_0_7" style="mask-type:luminance" maskUnits="userSpaceOnUse" x="70" y="5" width="101" height="141">
<path fill-rule="evenodd" clip-rule="evenodd" d="M83.4172 5.65642L70.512 14.7608L162.572 145.954L170.713 130.073L83.4172 5.65642Z" fill="white"/>
</mask>
<g mask="url(#mask5_0_7)">
<path fill-rule="evenodd" clip-rule="evenodd" d="M51.6558 203.77C52.2088 203.357 52.7927 202.979 53.3122 202.526C98.1044 163.486 142.892 124.44 187.682 85.3965C188.087 85.0431 188.522 84.7266 188.944 84.3926L188.376 92.5161C187.861 92.8937 187.319 93.2375 186.84 93.6554C142.791 132.047 98.7477 170.443 54.7087 208.845C54.2711 209.226 53.8964 209.682 53.4923 210.103L51.224 209.945L51.6558 203.77Z" fill="#231F20"/>
</g>
<mask id="mask6_0_7" style="mask-type:luminance" maskUnits="userSpaceOnUse" x="70" y="5" width="101" height="141">
<path fill-rule="evenodd" clip-rule="evenodd" d="M83.4172 5.65642L70.512 14.7608L162.572 145.954L170.713 130.073" fill="white"/>
</mask>
<g mask="url(#mask6_0_7)">
<path fill-rule="evenodd" clip-rule="evenodd" d="M195.192 -4.96494C194.639 -4.5522 194.055 -4.17343 193.535 -3.72048C148.783 35.2829 104.036 74.2925 59.2851 113.299C58.8396 113.687 58.3661 114.042 57.9037 114.413L58.4717 106.289C58.9443 105.947 59.4462 105.638 59.8838 105.256C101.853 68.679 143.816 32.0968 185.775 -4.49034C186.254 -4.90823 186.669 -5.39879 187.114 -5.85699C189.605 -5.68282 192.094 -5.51629 194.584 -5.31951C194.794 -5.30329 194.989 -5.08819 195.192 -4.96494Z" fill="#231F20"/>
</g>
<mask id="mask7_0_7" style="mask-type:luminance" maskUnits="userSpaceOnUse" x="70" y="5" width="101" height="141">
<path fill-rule="evenodd" clip-rule="evenodd" d="M83.4172 5.65642L70.512 14.7608L162.572 145.954L170.713 130.073L83.4172 5.65642Z" fill="white"/>
</mask>
<g mask="url(#mask7_0_7)">
<path fill-rule="evenodd" clip-rule="evenodd" d="M61.5927 210.669C68.353 204.74 75.1008 198.796 81.8779 192.886C116.883 162.358 151.897 131.84 186.911 101.32C187.192 101.075 187.508 100.865 187.807 100.639L187.239 108.763C186.807 109.07 186.345 109.342 185.948 109.689C147.637 143.077 109.332 176.471 71.0304 209.87C70.5526 210.288 70.1376 210.779 69.6933 211.236L61.5927 210.669Z" fill="#231F20"/>
</g>
<mask id="mask8_0_7" style="mask-type:luminance" maskUnits="userSpaceOnUse" x="70" y="5" width="101" height="141">
<path fill-rule="evenodd" clip-rule="evenodd" d="M83.4172 5.65642L70.512 14.7608L162.572 145.954L170.713 130.073" fill="white"/>
</mask>
<g mask="url(#mask8_0_7)">
<path fill-rule="evenodd" clip-rule="evenodd" d="M179.013 -6.42285C172.702 -0.885276 166.404 4.66843 160.076 10.1867C126.782 39.2195 93.4802 68.2441 60.1797 97.2674C59.8145 97.5857 59.4202 97.8671 59.0398 98.1662L59.6079 90.0427C60.0401 89.7366 60.5018 89.4644 60.8976 89.1179C97.2107 57.4712 133.517 25.8193 169.82 -5.8372C170.217 -6.18357 170.55 -6.60412 170.913 -6.9893C173.612 -6.80052 176.313 -6.61163 179.013 -6.42285Z" fill="#231F20"/>
</g>
<mask id="mask9_0_7" style="mask-type:luminance" maskUnits="userSpaceOnUse" x="70" y="5" width="101" height="141">
<path fill-rule="evenodd" clip-rule="evenodd" d="M83.4172 5.65642L70.512 14.7608L162.572 145.954L170.713 130.073L83.4172 5.65642Z" fill="white"/>
</mask>
<g mask="url(#mask9_0_7)">
<path fill-rule="evenodd" clip-rule="evenodd" d="M77.7937 211.802C78.1017 211.502 78.3955 211.188 78.7189 210.906C114.362 179.829 150.009 148.752 185.658 117.68C185.981 117.398 186.332 117.15 186.671 116.886L186.103 125.01C185.671 125.316 185.209 125.588 184.812 125.934C152.198 154.356 119.591 182.784 86.987 211.216C86.5897 211.561 86.2566 211.983 85.8943 212.369L77.7937 211.802Z" fill="#231F20"/>
</g>
<mask id="mask10_0_7" style="mask-type:luminance" maskUnits="userSpaceOnUse" x="70" y="5" width="101" height="141">
<path fill-rule="evenodd" clip-rule="evenodd" d="M83.4172 5.65642L70.512 14.7608L162.572 145.954L170.713 130.073" fill="white"/>
</mask>
<g mask="url(#mask10_0_7)">
<path fill-rule="evenodd" clip-rule="evenodd" d="M162.812 -7.55566C162.547 -7.2894 162.298 -7.00691 162.015 -6.7601C128.369 22.5753 94.7226 51.9076 61.0728 81.2381C60.7898 81.4834 60.476 81.6933 60.1763 81.9192L60.7443 73.7957C61.1751 73.4895 61.6367 73.2173 62.0339 72.8724C92.5674 46.2642 123.095 19.6495 153.619 -6.97001C154.016 -7.31639 154.349 -7.73694 154.712 -8.12212C157.411 -7.93333 160.113 -7.74445 162.812 -7.55566Z" fill="#231F20"/>
</g>
<mask id="mask11_0_7" style="mask-type:luminance" maskUnits="userSpaceOnUse" x="70" y="5" width="101" height="141">
<path fill-rule="evenodd" clip-rule="evenodd" d="M83.4172 5.65642L70.512 14.7608L162.572 145.954L170.713 130.073L83.4172 5.65642Z" fill="white"/>
</mask>
<g mask="url(#mask11_0_7)">
<path fill-rule="evenodd" clip-rule="evenodd" d="M93.9947 212.935C100.472 207.256 106.935 201.562 113.427 195.901C137.119 175.237 160.821 154.583 184.521 133.927C184.845 133.646 185.196 133.397 185.535 133.133C185.345 135.841 185.156 138.549 184.967 141.257C184.536 141.563 184.074 141.835 183.677 142.182C156.842 165.564 130.012 188.955 103.188 212.349C102.791 212.696 102.458 213.116 102.095 213.501L93.9947 212.935Z" fill="#231F20"/>
</g>
<mask id="mask12_0_7" style="mask-type:luminance" maskUnits="userSpaceOnUse" x="70" y="5" width="101" height="141">
<path fill-rule="evenodd" clip-rule="evenodd" d="M83.4172 5.65642L70.512 14.7608L162.572 145.954L170.713 130.073" fill="white"/>
</mask>
<g mask="url(#mask12_0_7)">
<path fill-rule="evenodd" clip-rule="evenodd" d="M146.611 -8.68872C140.134 -3.00972 133.67 2.6853 127.177 8.34807C105.65 27.1274 84.1115 45.8969 62.5745 64.6681C62.1692 65.0199 61.7331 65.3378 61.3125 65.672L61.8805 57.5484C62.3113 57.2423 62.7729 56.9701 63.1701 56.6252C87.8823 35.0889 112.59 13.5493 137.293 -7.99671C137.73 -8.37964 138.106 -8.83353 138.51 -9.25517C141.21 -9.06639 143.911 -8.8775 146.611 -8.68872Z" fill="#231F20"/>
</g>
<mask id="mask13_0_7" style="mask-type:luminance" maskUnits="userSpaceOnUse" x="70" y="5" width="101" height="141">
<path fill-rule="evenodd" clip-rule="evenodd" d="M83.4172 5.65642L70.512 14.7608L162.572 145.954L170.713 130.073L83.4172 5.65642Z" fill="white"/>
</mask>
<g mask="url(#mask13_0_7)">
<path fill-rule="evenodd" clip-rule="evenodd" d="M110.196 214.068C110.993 213.34 111.775 212.597 112.588 211.889C136.143 191.349 159.701 170.812 183.26 150.276C183.624 149.959 184.018 149.678 184.398 149.38C184.209 152.088 184.02 154.795 183.83 157.504C183.4 157.81 182.938 158.082 182.542 158.427C161.485 176.774 140.434 195.125 119.387 213.484C118.99 213.829 118.659 214.249 118.296 214.634L110.196 214.068Z" fill="#231F20"/>
</g>
<mask id="mask14_0_7" style="mask-type:luminance" maskUnits="userSpaceOnUse" x="70" y="5" width="101" height="141">
<path fill-rule="evenodd" clip-rule="evenodd" d="M83.4172 5.65642L70.512 14.7608L162.572 145.954L170.713 130.073" fill="white"/>
</mask>
<g mask="url(#mask14_0_7)">
<path fill-rule="evenodd" clip-rule="evenodd" d="M130.41 -9.82153C130.184 -9.59194 129.974 -9.34762 129.732 -9.13577C107.564 10.1941 85.3929 29.5222 63.2189 48.8472C62.9776 49.0575 62.7055 49.2339 62.4489 49.425L63.017 41.3014C63.4059 41.0317 63.8258 40.7945 64.1828 40.4847C83.2391 23.8805 102.293 7.27153 121.339 -9.34397C121.696 -9.65528 121.987 -10.0379 122.31 -10.388C125.009 -10.1992 127.71 -10.0103 130.41 -9.82153Z" fill="#231F20"/>
</g>
<mask id="mask15_0_7" style="mask-type:luminance" maskUnits="userSpaceOnUse" x="70" y="5" width="101" height="141">
<path fill-rule="evenodd" clip-rule="evenodd" d="M83.4172 5.65642L70.512 14.7608L162.572 145.954L170.713 130.073" fill="white"/>
</mask>
<g mask="url(#mask15_0_7)">
<path fill-rule="evenodd" clip-rule="evenodd" d="M114.209 -10.9543C108.112 -5.60629 102.024 -0.248461 95.9157 5.08669C85.4831 14.1943 75.0392 23.289 64.5968 32.3853C64.2735 32.6672 63.9223 32.9153 63.5852 33.178L64.1533 25.0545C64.5021 24.8183 64.8803 24.616 65.1956 24.3412C78.5542 12.7055 91.9087 1.06342 105.259 -10.585C105.574 -10.8598 105.827 -11.2072 106.108 -11.5208C108.808 -11.332 111.509 -11.1431 114.209 -10.9543Z" fill="#231F20"/>
</g>
<mask id="mask16_0_7" style="mask-type:luminance" maskUnits="userSpaceOnUse" x="70" y="5" width="101" height="141">
<path fill-rule="evenodd" clip-rule="evenodd" d="M83.4172 5.65642L70.512 14.7608L162.572 145.954L170.713 130.073" fill="white"/>
</mask>
<g mask="url(#mask16_0_7)">
<path fill-rule="evenodd" clip-rule="evenodd" d="M98.0081 -12.0874C93.8233 -8.40671 89.6539 -4.70827 85.451 -1.04854C78.5524 4.95696 71.6312 10.9397 64.7215 16.9308L65.2895 8.80872C65.598 8.60914 65.9357 8.44492 66.2107 8.20663C73.8733 1.53654 81.5318 -5.13989 89.1847 -11.8228C89.4581 -12.0612 89.6674 -12.3753 89.9074 -12.6539C92.6071 -12.4651 95.3083 -12.2762 98.0081 -12.0874Z" fill="#231F20"/>
</g>
<path fill-rule="evenodd" clip-rule="evenodd" d="M163.179 147.223L196.457 193.657L150.956 170.589L163.179 147.223Z" fill="#231F20"/>
<path fill-rule="evenodd" clip-rule="evenodd" d="M220.402 199.426L171.649 129.94L185.613 102.763L252.337 137.223L220.402 199.426Z" fill="#231F20"/>
<path fill-rule="evenodd" clip-rule="evenodd" d="M83.6857 6.89641L72.0033 15.1357L162.973 144.744L170.338 130.376L83.6857 6.89641ZM69.9038 14.7692L84.052 4.79133L172.097 130.253L163.174 147.659L162.457 146.637L69.9038 14.7692Z" fill="#231F20"/>
<path fill-rule="evenodd" clip-rule="evenodd" d="M251.208 242.252L219.647 197.764L216.981 202.896L193.646 190.955L237.048 252.131L251.208 242.252ZM217.633 204.914L219.846 200.65L249.103 241.888L237.411 250.045L198.42 195.084L217.633 204.914Z" fill="#231F20"/>
<path fill-rule="evenodd" clip-rule="evenodd" d="M216.47 48.9683C217.211 38.378 209.188 29.1603 198.586 28.4189C187.984 27.6776 178.758 35.6891 178.017 46.2795C177.277 56.8698 185.298 66.0874 195.9 66.8288C206.502 67.5701 215.729 59.5587 216.47 48.9683ZM176.514 46.1744C177.313 34.7568 187.263 26.1185 198.691 26.9176C210.122 27.717 218.771 37.6559 217.973 49.0734C217.175 60.491 207.226 69.1295 195.795 68.3301C184.367 67.5309 175.716 57.5919 176.514 46.1744Z" fill="#231F20"/>
<path fill-rule="evenodd" clip-rule="evenodd" d="M106.37 126.41L13.7661 111.609L110.182 198.247L106.37 126.41ZM8.96213 109.317L107.813 125.115L107.843 125.724L111.878 201.797L8.96213 109.317Z" fill="#231F20"/>
</g>
</svg>
