<svg width="278" height="286" viewBox="0 0 278 286" fill="none" xmlns="http://www.w3.org/2000/svg">
<g opacity="0.400065">
<path fill-rule="evenodd" clip-rule="evenodd" d="M21.5858 154.09C26.9138 135.509 46.5118 124.826 65.3579 130.231C84.204 135.635 95.1633 155.079 89.8354 173.66C84.5075 192.24 64.9094 202.923 46.0633 197.519C27.2172 192.115 16.2579 172.67 21.5858 154.09Z" fill="#231F20"/>
<path fill-rule="evenodd" clip-rule="evenodd" d="M42.9197 81.8373L80.8137 243.547L198.644 126.491L42.9197 81.8373Z" fill="#C5CEBD"/>
<path fill-rule="evenodd" clip-rule="evenodd" d="M200.132 126.258L42.4851 81.0532L80.2378 246.883L200.132 126.258ZM197.246 127.013L81.1037 243.864L44.5324 83.2232L197.246 127.013Z" fill="#231F20"/>
<path fill-rule="evenodd" clip-rule="evenodd" d="M65.7423 128.469C46.6307 122.989 26.8175 133.61 21.4896 152.19C16.1616 170.771 27.3361 190.277 46.4477 195.757C65.5592 201.238 85.3725 190.617 90.7004 172.036C96.0283 153.456 84.8539 133.949 65.7423 128.469ZM46.8564 194.332C28.5547 189.084 17.8537 170.404 22.9558 152.611C28.058 134.817 47.0318 124.647 65.3335 129.895C83.6353 135.143 94.3363 153.822 89.2341 171.616C84.132 189.409 65.1582 199.58 46.8564 194.332Z" fill="#231F20"/>
<path d="M213.002 264.475L211.677 265.209L65.6876 1.83739L67.0122 1.10317L213.002 264.475Z" fill="#231F20"/>
<path fill-rule="evenodd" clip-rule="evenodd" d="M152.555 214.932C149.103 213.942 145.565 215.722 144.652 218.907C143.738 222.093 145.796 225.477 149.247 226.467C152.697 227.456 156.235 225.676 157.148 222.491C158.062 219.305 156.005 215.921 152.555 214.932ZM149.652 225.055C147.045 224.307 145.492 221.752 146.182 219.346C146.871 216.94 149.543 215.596 152.15 216.344C154.755 217.091 156.308 219.646 155.618 222.052C154.929 224.457 152.257 225.802 149.652 225.055Z" fill="#231F20"/>
<path fill-rule="evenodd" clip-rule="evenodd" d="M123.846 104.391L158.665 167.43L199.786 126.166L123.846 104.391ZM126.938 106.855L196.901 126.917L159.016 164.934L126.938 106.855Z" fill="#231F20"/>
<path d="M243.644 180.778L226.919 221.802L225.488 221.23L241.603 181.701L203.286 169.638L233.366 137.766L203.532 102.988L204.705 102.04L235.409 137.832L206.048 168.942L243.644 180.778Z" fill="#231F20"/>
<path fill-rule="evenodd" clip-rule="evenodd" d="M149.904 68.1542C152.34 59.6601 160.985 54.6867 169.213 57.0461C177.443 59.406 182.139 68.2048 179.703 76.6989C177.267 85.193 168.622 90.1663 160.393 87.8065C152.164 85.4471 147.468 76.6482 149.904 68.1542Z" fill="#231F20"/>
</g>
</svg>
